# xmcd
#
# Track frame offsets: 
#        150
#        45328
#        75200
#        118626
#        147943
#        177832
#        208424
#        239478
#        271252
#        298111
#        328899
#
# Disc length: 4771 seconds
#
# Revision: 1
# Processed by: cddbd v1.5.2PL0 Copyright (c) Steve Scherf et al.
# Submitted via: ExactAudioCopy v1.3
#
DISCID=a112a10b
DTITLE=Various Artist - Free Soul The Treasure Of West End
DYEAR=2014
DGENRE=Soul
TTITLE0=Sesso Matto - Sessomatto [Jim Stuard Disco Mix]
TTITLE1=Jakki - You Are The Star
TTITLE2=Michele - Can't You Feel It
TTITLE3=Raw Silk - Do It To The Music
TTITLE4=Sybil Thomas - Rescue Me
TTITLE5=Stone - Girl I Like The Way That You Move
TTITLE6=Loose Joints - Is It All Over My Face [Larry Levan Female Voca
TTITLE6=l Version]
TTITLE7=Taana Gardner - No Frills [Party Version]
TTITLE8=B.T. (Brenda Taylor) - You Can't Have Your Cake And Eat It Too
TTITLE9=Kenix feat. Bobby Youngblood - There's Never Been (No One Like
TTITLE9=You)
TTITLE10=The Chuck Davis Orchestra - Spirit Of Sunshine
EXTD=
EXTT0=
EXTT1=
EXTT2=
EXTT3=
EXTT4=
EXTT5=
EXTT6=
EXTT7=
EXTT8=
EXTT9=
EXTT10=
PLAYORDER=
